dataset
version=1
nRows=25
nColumns=39
inDegrees=no
endheader
time	sternoclavicular_r2	sternoclavicular_r3	unrotscap_r3	unrotscap_r2	acromioclavicular_r2	acromioclavicular_r3	acromioclavicular_r1	unrothum_r1	unrothum_r3	unrothum_r2	elv_angle	shoulder_elv	shoulder1_r2	shoulder_rot	elbow_flexion	pro_sup	deviation	flexion	cmc_abduction	cmc_flexion	mp_flexion	ip_flexion	mcp2_flexion	mcp2_abduction	pm2_flexion	md2_flexion	mcp3_flexion	mcp3_abduction	pm3_flexion	md3_flexion	mcp4_flexion	mcp4_abduction	pm4_flexion	md4_flexion	mcp5_flexion	mcp5_abduction	pm5_flexion	md5_flexion
0.000000	-0.040465	-0.443820	0.299089	0.142640	0.106993	0.177836	-0.246966	0.009486	-0.058900	0.141493	0.107041	0.027437	0.146525	0.146525	1.244498	0.984505	0.000000	0.000000	0.000000	0.000000	0.000000	0.000000	0.000000	0.000000	0.000000	0.000000	0.000000	0.000000	0.000000	0.000000	0.000000	0.000000	0.000000	0.000000	0.000000	0.000000	0.000000	0.000000
0.005000	-0.040501	-0.444004	0.299523	0.142738	0.107033	0.178126	-0.247296	0.010056	-0.059344	0.141418	0.106954	0.027437	0.146525	0.146525	1.244954	0.993572	0.000000	0.000000	0.000000	0.000000	0.000000	0.000000	0.000000	0.000000	0.000000	0.000000	0.000000	0.000000	0.000000	0.000000	0.000000	0.000000	0.000000	0.000000	0.000000	0.000000	0.000000	0.000000
0.010000	-0.040528	-0.444159	0.299854	0.142808	0.107057	0.178353	-0.247543	0.010476	-0.059669	0.141355	0.106883	0.027437	0.146525	0.146525	1.245396	1.002374	0.000000	0.000000	0.000000	0.000000	0.000000	0.000000	0.000000	0.000000	0.000000	0.000000	0.000000	0.000000	0.000000	0.000000	0.000000	0.000000	0.000000	0.000000	0.000000	0.000000	0.000000	0.000000
0.015000	-0.040549	-0.444296	0.300116	0.142860	0.107072	0.178539	-0.247736	0.010798	-0.059913	0.141299	0.106824	0.027437	0.146525	0.146525	1.245824	1.010919	0.000000	0.000000	0.000000	0.000000	0.000000	0.000000	0.000000	0.000000	0.000000	0.000000	0.000000	0.000000	0.000000	0.000000	0.000000	0.000000	0.000000	0.000000	0.000000	0.000000	0.000000	0.000000
0.020000	-0.040566	-0.444420	0.300330	0.142901	0.107081	0.178696	-0.247892	0.011056	-0.060102	0.141250	0.106774	0.027437	0.146525	0.146525	1.246238	1.019214	0.000000	0.000000	0.000000	0.000000	0.000000	0.000000	0.000000	0.000000	0.000000	0.000000	0.000000	0.000000	0.000000	0.000000	0.000000	0.000000	0.000000	0.000000	0.000000	0.000000	0.000000	0.000000
0.025000	-0.040580	-0.444534	0.300512	0.142935	0.107087	0.178835	-0.248021	0.011271	-0.060255	0.141206	0.106730	0.027437	0.146525	0.146525	1.246635	1.027265	0.000000	0.000000	0.000000	0.000000	0.000000	0.000000	0.000000	0.000000	0.000000	0.000000	0.000000	0.000000	0.000000	0.000000	0.000000	0.000000	0.000000	0.000000	0.000000	0.000000	0.000000	0.000000
0.030000	-0.040593	-0.444641	0.300671	0.142965	0.107092	0.178961	-0.248131	0.011457	-0.060382	0.141165	0.106692	0.027437	0.146525	0.146525	1.247016	1.035078	0.000000	0.000000	0.000000	0.000000	0.000000	0.000000	0.000000	0.000000	0.000000	0.000000	0.000000	0.000000	0.000000	0.000000	0.000000	0.000000	0.000000	0.000000	0.000000	0.000000	0.000000	0.000000
0.035000	-0.040604	-0.444743	0.300813	0.142993	0.107096	0.179077	-0.248227	0.011624	-0.060491	0.141128	0.106659	0.027437	0.146525	0.146525	1.247380	1.042661	0.000000	0.000000	0.000000	0.000000	0.000000	0.000000	0.000000	0.000000	0.000000	0.000000	0.000000	0.000000	0.000000	0.000000	0.000000	0.000000	0.000000	0.000000	0.000000	0.000000	0.000000	0.000000
0.040000	-0.040615	-0.444841	0.300942	0.143020	0.107101	0.179186	-0.248313	0.011779	-0.060587	0.141094	0.106630	0.027437	0.146525	0.146525	1.247728	1.050020	0.000000	0.000000	0.000000	0.000000	0.000000	0.000000	0.000000	0.000000	0.000000	0.000000	0.000000	0.000000	0.000000	0.000000	0.000000	0.000000	0.000000	0.000000	0.000000	0.000000	0.000000	0.000000
0.045000	-0.040625	-0.444935	0.301060	0.143046	0.107106	0.179289	-0.248389	0.011924	-0.060673	0.141063	0.106605	0.027437	0.146525	0.146525	1.248059	1.057160	0.000000	0.000000	0.000000	0.000000	0.000000	0.000000	0.000000	0.000000	0.000000	0.000000	0.000000	0.000000	0.000000	0.000000	0.000000	0.000000	0.000000	0.000000	0.000000	0.000000	0.000000	0.000000
0.050000	-0.040635	-0.445025	0.301169	0.143072	0.107113	0.179388	-0.248458	0.012063	-0.060750	0.141034	0.106583	0.027437	0.146525	0.146525	1.248373	1.064088	0.000000	0.000000	0.000000	0.000000	0.000000	0.000000	0.000000	0.000000	0.000000	0.000000	0.000000	0.000000	0.000000	0.000000	0.000000	0.000000	0.000000	0.000000	0.000000	0.000000	0.000000	0.000000
0.055000	-0.040644	-0.445112	0.301271	0.143099	0.107120	0.179482	-0.248520	0.012197	-0.060821	0.141008	0.106564	0.027437	0.146525	0.146525	1.248671	1.070811	0.000000	0.000000	0.000000	0.000000	0.000000	0.000000	0.000000	0.000000	0.000000	0.000000	0.000000	0.000000	0.000000	0.000000	0.000000	0.000000	0.000000	0.000000	0.000000	0.000000	0.000000	0.000000
0.060000	-0.040653	-0.445196	0.301365	0.143125	0.107128	0.179573	-0.248575	0.012327	-0.060887	0.140984	0.106548	0.027437	0.146525	0.146525	1.248952	1.077333	0.000000	0.000000	0.000000	0.000000	0.000000	0.000000	0.000000	0.000000	0.000000	0.000000	0.000000	0.000000	0.000000	0.000000	0.000000	0.000000	0.000000	0.000000	0.000000	0.000000	0.000000	0.000000
0.065000	-0.040661	-0.445276	0.301451	0.143152	0.107138	0.179660	-0.248624	0.012454	-0.060947	0.140962	0.106535	0.027437	0.146525	0.146525	1.249216	1.083660	0.000000	0.000000	0.000000	0.000000	0.000000	0.000000	0.000000	0.000000	0.000000	0.000000	0.000000	0.000000	0.000000	0.000000	0.000000	0.000000	0.000000	0.000000	0.000000	0.000000	0.000000	0.000000
0.070000	-0.040669	-0.445353	0.301531	0.143179	0.107148	0.179743	-0.248668	0.012577	-0.061003	0.140942	0.106525	0.027437	0.146525	0.146525	1.249463	1.089799	0.000000	0.000000	0.000000	0.000000	0.000000	0.000000	0.000000	0.000000	0.000000	0.000000	0.000000	0.000000	0.000000	0.000000	0.000000	0.000000	0.000000	0.000000	0.000000	0.000000	0.000000	0.000000
0.075000	-0.040677	-0.445427	0.301603	0.143206	0.107160	0.179822	-0.248705	0.012697	-0.061054	0.140925	0.106518	0.027437	0.146525	0.146525	1.249694	1.095754	0.000000	0.000000	0.000000	0.000000	0.000000	0.000000	0.000000	0.000000	0.000000	0.000000	0.000000	0.000000	0.000000	0.000000	0.000000	0.000000	0.000000	0.000000	0.000000	0.000000	0.000000	0.000000
0.080000	-0.040684	-0.445497	0.301668	0.143233	0.107172	0.179897	-0.248736	0.012814	-0.061101	0.140909	0.106512	0.027437	0.146525	0.146525	1.249909	1.101531	0.000000	0.000000	0.000000	0.000000	0.000000	0.000000	0.000000	0.000000	0.000000	0.000000	0.000000	0.000000	0.000000	0.000000	0.000000	0.000000	0.000000	0.000000	0.000000	0.000000	0.000000	0.000000
0.085000	-0.040691	-0.445563	0.301726	0.143260	0.107185	0.179968	-0.248762	0.012928	-0.061144	0.140895	0.106509	0.027437	0.146525	0.146525	1.250107	1.107135	0.000000	0.000000	0.000000	0.000000	0.000000	0.000000	0.000000	0.000000	0.000000	0.000000	0.000000	0.000000	0.000000	0.000000	0.000000	0.000000	0.000000	0.000000	0.000000	0.000000	0.000000	0.000000
0.090000	-0.040697	-0.445625	0.301776	0.143287	0.107199	0.180034	-0.248781	0.013039	-0.061183	0.140883	0.106509	0.027437	0.146525	0.146525	1.250290	1.112571	0.000000	0.000000	0.000000	0.000000	0.000000	0.000000	0.000000	0.000000	0.000000	0.000000	0.000000	0.000000	0.000000	0.000000	0.000000	0.000000	0.000000	0.000000	0.000000	0.000000	0.000000	0.000000
0.095000	-0.040703	-0.445684	0.301819	0.143313	0.107213	0.180095	-0.248795	0.013146	-0.061218	0.140873	0.106511	0.027437	0.146525	0.146525	1.250456	1.117844	0.000000	0.000000	0.000000	0.000000	0.000000	0.000000	0.000000	0.000000	0.000000	0.000000	0.000000	0.000000	0.000000	0.000000	0.000000	0.000000	0.000000	0.000000	0.000000	0.000000	0.000000	0.000000
0.100000	-0.040709	-0.445738	0.301854	0.143338	0.107227	0.180152	-0.248802	0.013249	-0.061249	0.140865	0.106514	0.027437	0.146525	0.146525	1.250606	1.122959	0.000000	0.000000	0.000000	0.000000	0.000000	0.000000	0.000000	0.000000	0.000000	0.000000	0.000000	0.000000	0.000000	0.000000	0.000000	0.000000	0.000000	0.000000	0.000000	0.000000	0.000000	0.000000
0.105000	-0.040714	-0.445789	0.301882	0.143363	0.107242	0.180203	-0.248804	0.013348	-0.061276	0.140859	0.106520	0.027437	0.146525	0.146525	1.250741	1.127920	0.000000	0.000000	0.000000	0.000000	0.000000	0.000000	0.000000	0.000000	0.000000	0.000000	0.000000	0.000000	0.000000	0.000000	0.000000	0.000000	0.000000	0.000000	0.000000	0.000000	0.000000	0.000000
0.110000	-0.040718	-0.445835	0.301902	0.143387	0.107258	0.180250	-0.248800	0.013443	-0.061300	0.140854	0.106527	0.027437	0.146525	0.146525	1.250860	1.132732	0.000000	0.000000	0.000000	0.000000	0.000000	0.000000	0.000000	0.000000	0.000000	0.000000	0.000000	0.000000	0.000000	0.000000	0.000000	0.000000	0.000000	0.000000	0.000000	0.000000	0.000000	0.000000
0.115000	-0.040723	-0.445877	0.301914	0.143410	0.107273	0.180290	-0.248789	0.013534	-0.061320	0.140851	0.106537	0.027437	0.146525	0.146525	1.250964	1.137399	0.000000	0.000000	0.000000	0.000000	0.000000	0.000000	0.000000	0.000000	0.000000	0.000000	0.000000	0.000000	0.000000	0.000000	0.000000	0.000000	0.000000	0.000000	0.000000	0.000000	0.000000	0.000000
0.120000	-0.040726	-0.445915	0.301918	0.143432	0.107288	0.180326	-0.248774	0.013620	-0.061337	0.140850	0.106548	0.027437	0.146525	0.146525	1.251053	1.141926	0.000000	0.000000	0.000000	0.000000	0.000000	0.000000	0.000000	0.000000	0.000000	0.000000	0.000000	0.000000	0.000000	0.000000	0.000000	0.000000	0.000000	0.000000	0.000000	0.000000	0.000000	0.000000
